<?xml version="1.0" encoding="UTF-8"?>
<svg version="1.1" xmlns="http://www.w3.org/2000/svg" width="90" height="90">
<path d="M0 0 C13.53691864 4.34232208 26.5341268 3.49342462 39.8671875 -1.328125 C46.13278935 -3.29084365 51.06487021 -1.35755465 56.8125 1.0625 C56.8125 3.0425 56.8125 5.0225 56.8125 7.0625 C51.98889811 7.25544408 48.31603262 6.81997614 43.8125 5.0625 C44.3075 6.0525 44.3075 6.0525 44.8125 7.0625 C44.91105117 9.51178655 44.95150583 11.92631376 44.9375 14.375 C44.94136719 16.34919922 44.94136719 16.34919922 44.9453125 18.36328125 C44.83515548 21.43147824 44.44954277 24.08071158 43.8125 27.0625 C44.11051073 29.68779562 44.11051073 29.68779562 45.8125 32.0625 C47.82934478 33.43914301 49.87115026 34.62298811 52.03515625 35.75390625 C53.8125 37.0625 53.8125 37.0625 54.62109375 39.08984375 C54.8125 41.0625 54.8125 41.0625 53.8125 43.0625 C48.78556969 43.47526847 46.43399099 42.58687156 42.4375 39.5625 C41.56351563 38.9128125 40.68953125 38.263125 39.7890625 37.59375 C39.13679688 37.0884375 38.48453125 36.583125 37.8125 36.0625 C37.25820312 36.48402344 36.70390625 36.90554687 36.1328125 37.33984375 C35.40835938 37.88769531 34.68390625 38.43554688 33.9375 39 C33.21820313 39.54527344 32.49890625 40.09054688 31.7578125 40.65234375 C27.54185243 43.70849151 27.10280337 43.0625 20.8125 43.0625 C20.4825 32.5025 20.1525 21.9425 19.8125 11.0625 C18.4925 11.0625 17.1725 11.0625 15.8125 11.0625 C15.4825 21.6225 15.1525 32.1825 14.8125 43.0625 C6.96527778 43.0625 6.96527778 43.0625 3 40.0625 C0.19245616 37.72906809 0.19245616 37.72906809 -3.1875 37.0625 C-4.62676782 38.02968798 -6.04005715 39.03580729 -7.4375 40.0625 C-11.17512852 42.63476131 -13.53732891 43.77791094 -18.1875 43.0625 C-18.9375 41.3125 -18.9375 41.3125 -19.1875 39.0625 C-17.20967565 36.55218449 -15.39353602 35.17042363 -12.5625 33.6875 C-9.40289066 31.52566203 -8.94193863 29.75924928 -8.1875 26.0625 C-8.33703125 25.49660156 -8.4865625 24.93070313 -8.640625 24.34765625 C-9.42752372 21.05954375 -9.33181005 17.79744878 -9.3125 14.4375 C-9.31636719 13.756875 -9.32023437 13.07625 -9.32421875 12.375 C-9.31422061 7.31594122 -9.31422061 7.31594122 -8.1875 5.0625 C-9.4559375 5.5575 -9.4559375 5.5575 -10.75 6.0625 C-14.39739216 7.12355954 -17.41024664 7.21359013 -21.1875 7.0625 C-21.1875 5.0825 -21.1875 3.1025 -21.1875 1.0625 C-13.30843763 -2.25499995 -8.25348133 -2.69220701 0 0 Z " fill="#10b981" transform="translate(27.1875,34.9375)"/>
<path d="M0 0 C2.375 0.125 2.375 0.125 5 1 C6 2.66666667 7 4.33333333 8 6 C13.16427361 7.4639593 18.68586575 7.60686101 24 7 C26.63138206 5.37275054 26.63138206 5.37275054 28 3 C28.66 2.01 29.32 1.02 30 0 C32.475 0.495 32.475 0.495 35 1 C35.3646381 4.91985956 35.38588343 6.49718219 32.9375 9.6875 C31.9784375 10.8321875 31.9784375 10.8321875 31 12 C31.495 13.485 31.495 13.485 32 15 C35.29075996 14.62095792 35.29075996 14.62095792 38 13 C40.01964199 12.92755947 42.04167124 12.91622812 44.0625 12.9375 C45.71958984 12.95103516 45.71958984 12.95103516 47.41015625 12.96484375 C48.26480469 12.97644531 49.11945313 12.98804688 50 13 C51.125 16.75 51.125 16.75 50 19 C48.14453125 19.52734375 48.14453125 19.52734375 45.8125 19.9375 C41.80209538 20.73958092 38.62087997 22.06325025 35 24 C29.35979209 25.82825333 23.16983031 25.22605588 17.3125 25.25 C16.07048828 25.270625 14.82847656 25.29125 13.54882812 25.3125 C5.08385782 25.34838753 -1.85758293 24.76161138 -9 20 C-11.32387947 19.60612212 -13.65793749 19.26513915 -16 19 C-17.125 15.25 -17.125 15.25 -16 13 C-14.04196493 12.94610913 -12.08351091 12.90725783 -10.125 12.875 C-8.48917969 12.84019531 -8.48917969 12.84019531 -6.8203125 12.8046875 C-4 13 -4 13 -2 15 C0.60280568 14.67958603 0.60280568 14.67958603 3 14 C1.79618552 11.50638429 0.54571278 9.31856917 -1 7 C-1.1875 3.875 -1.1875 3.875 -1 1 C-0.67 0.67 -0.34 0.34 0 0 Z " fill="#10b981" transform="translate(28,8)"/>
</svg>
