<svg xmlns="http://www.w3.org/2000/svg" xmlns:xlink="http://www.w3.org/1999/xlink" width="64" zoomAndPan="magnify" viewBox="0 0 48 48" height="64" preserveAspectRatio="xMidYMid meet" version="1.0"><defs><clipPath id="59fa874f0b"><path d="M 0.488281 3.847656 L 47.507812 3.847656 L 47.507812 43.171875 L 0.488281 43.171875 Z M 0.488281 3.847656 " clip-rule="nonzero"/></clipPath><clipPath id="985e3e2029"><path d="M 47.511719 15.742188 C 47.199219 8.421875 42.0625 3.847656 35.347656 3.847656 C 30.246094 3.847656 25.515625 6.917969 23.539062 11.277344 C 21.636719 6.917969 17.089844 3.847656 12.183594 3.847656 C 5.726562 3.847656 0.789062 8.421875 0.488281 15.742188 C 0.488281 30.949219 12.148438 38.40625 23.539062 43.171875 C 35.386719 38.40625 47.511719 30.949219 47.511719 15.742188 Z M 47.511719 15.742188 " clip-rule="nonzero"/></clipPath><clipPath id="fbf3cd282c"><path d="M 0.488281 0.847656 L 47.507812 0.847656 L 47.507812 40.171875 L 0.488281 40.171875 Z M 0.488281 0.847656 " clip-rule="nonzero"/></clipPath><clipPath id="bdabc057fd"><path d="M 47.511719 12.742188 C 47.199219 5.421875 42.0625 0.847656 35.347656 0.847656 C 30.246094 0.847656 25.515625 3.917969 23.539062 8.277344 C 21.636719 3.917969 17.089844 0.847656 12.183594 0.847656 C 5.726562 0.847656 0.789062 5.421875 0.488281 12.742188 C 0.488281 27.949219 12.148438 35.40625 23.539062 40.171875 C 35.386719 35.40625 47.511719 27.949219 47.511719 12.742188 Z M 47.511719 12.742188 " clip-rule="nonzero"/></clipPath><clipPath id="6fbb22b9ec"><rect x="0" width="48" y="0" height="41"/></clipPath></defs><g clip-path="url(#59fa874f0b)"><g clip-path="url(#985e3e2029)"><g transform="matrix(1, 0, 0, 1, 0.000000000000000056, 3)"><g clip-path="url(#6fbb22b9ec)"><g clip-path="url(#fbf3cd282c)"><g clip-path="url(#bdabc057fd)"><path fill="#ff5757" d="M 0.488281 0.847656 L 47.496094 0.847656 L 47.496094 40.171875 L 0.488281 40.171875 Z M 0.488281 0.847656 " fill-opacity="1" fill-rule="nonzero"/></g></g></g></g></g></g></svg>